<svg width="101" height="37" viewBox="0 0 101 37" fill="none" xmlns="http://www.w3.org/2000/svg">
<path d="M12.2787 7.09314H10.1395V8.16272H12.2787V7.09314Z" fill="black"/>
<path d="M12.2787 9.2323H10.1395V10.3019H12.2787V9.2323Z" fill="black"/>
<path d="M12.2787 11.3715H10.1395V12.441H12.2787V11.3715Z" fill="black"/>
<path d="M19.7658 7.62793H18.6962C18.6959 7.9115 18.5831 8.18336 18.3826 8.38387C18.1821 8.58438 17.9102 8.69718 17.6266 8.69751V9.7671C18.1938 9.76646 18.7375 9.54088 19.1386 9.13985C19.5396 8.73881 19.7652 8.19508 19.7658 7.62793Z" fill="black"/>
<path d="M22.4398 10.3019V9.2323C22.1563 9.23197 21.8844 9.11917 21.6839 8.91866C21.4834 8.71815 21.3706 8.44629 21.3702 8.16272H20.3007C20.3013 8.72987 20.5269 9.2736 20.9279 9.67464C21.3289 10.0757 21.8727 10.3013 22.4398 10.3019Z" fill="black"/>
<path d="M28.0545 33.5809C27.1517 33.745 26.2308 33.7862 25.3169 33.7032L16.0182 32.8578C15.8687 32.8442 15.7303 32.7735 15.6316 32.6604C15.5329 32.5473 15.4816 32.4006 15.4884 32.2506C15.4952 32.1007 15.5595 31.9591 15.6679 31.8554C15.7764 31.7516 15.9207 31.6937 16.0707 31.6936H23.2419C23.5965 31.693 23.9365 31.5518 24.1871 31.3009C24.4378 31.05 24.5787 30.71 24.5789 30.3553V30.3428C24.5783 30.0618 24.4871 29.7885 24.3189 29.5634L23.0944 27.9315C23.0168 27.8276 22.9748 27.7015 22.9745 27.5719V27.4802C22.9745 27.3616 23.0097 27.2456 23.0756 27.147C23.1414 27.0484 23.2351 26.9715 23.3447 26.9261C23.4542 26.8808 23.5748 26.8689 23.6911 26.892C23.8075 26.9152 23.9143 26.9723 23.9982 27.0561L26.3399 29.3978C26.3896 29.4475 26.4485 29.4868 26.5134 29.5137C26.5783 29.5406 26.6478 29.5544 26.7181 29.5544H32.6008V28.4848H26.9395L24.7546 26.2997C24.6996 26.2449 24.6409 26.1939 24.5789 26.1471V14.0455C24.5789 13.9036 24.5225 13.7676 24.4223 13.6673C24.322 13.567 24.1859 13.5107 24.0441 13.5107H23.5093V11.9063H24.3115C24.8079 11.9063 25.284 11.7091 25.635 11.3581C25.9861 11.007 26.1833 10.5309 26.1833 10.0345C26.1833 9.53809 25.9861 9.062 25.635 8.71097C25.284 8.35994 24.8079 8.16274 24.3115 8.16274H24.2562C24.524 7.84191 24.6616 7.43233 24.6421 7.01492C24.6225 6.5975 24.4471 6.20261 24.1505 5.90825C23.8539 5.6139 23.4576 5.44148 23.0401 5.42507C22.6225 5.40866 22.214 5.54944 21.8952 5.81962C21.8446 5.2899 21.5984 4.79806 21.2047 4.44012C20.8109 4.08219 20.2979 3.88386 19.7658 3.88386C19.2336 3.88386 18.7206 4.08219 18.3269 4.44012C17.9331 4.79806 17.6869 5.2899 17.6363 5.81962C17.3175 5.54944 16.909 5.40866 16.4914 5.42507C16.0739 5.44148 15.6777 5.6139 15.3811 5.90825C15.0845 6.20261 14.909 6.5975 14.8895 7.01492C14.8699 7.43233 15.0076 7.84191 15.2753 8.16274H15.22C14.9425 8.16249 14.6684 8.22431 14.4178 8.3437V6.02357C14.4178 5.17256 14.0798 4.3564 13.478 3.75464C12.8763 3.15288 12.0601 2.81482 11.2091 2.81482C10.3581 2.81482 9.54191 3.15288 8.94016 3.75464C8.3384 4.3564 8.00033 5.17256 8.00033 6.02357V13.5107H7.46554C7.32371 13.5107 7.18768 13.567 7.08739 13.6673C6.98709 13.7676 6.93075 13.9036 6.93075 14.0455V16.3971L4.05898 18.8586H0.513245V19.9282H4.25679C4.38444 19.9282 4.50788 19.8825 4.6048 19.7994L7.70446 17.1426C8.02312 16.8696 8.42885 16.7195 8.84845 16.7194C8.89225 16.7194 8.93507 16.7324 8.97149 16.7568C9.00791 16.7811 9.03629 16.8157 9.05305 16.8562C9.06981 16.8966 9.07419 16.9412 9.06564 16.9841C9.05709 17.0271 9.03599 17.0665 9.00501 17.0975L7.08738 19.0152C7.01258 19.09 6.96164 19.1853 6.94101 19.289C6.92037 19.3928 6.93096 19.5003 6.97144 19.598C7.01192 19.6958 7.08047 19.7793 7.16842 19.838C7.25637 19.8968 7.35977 19.9282 7.46554 19.9282H13.0809C13.1518 19.9282 13.2198 19.9563 13.2699 20.0065C13.3201 20.0566 13.3483 20.1246 13.3483 20.1956C13.3483 20.2665 13.3201 20.3345 13.2699 20.3846C13.2198 20.4348 13.1518 20.463 13.0809 20.463H9.06992C8.92808 20.463 8.79206 20.5193 8.69176 20.6196C8.59147 20.7199 8.53513 20.8559 8.53513 20.9977C8.53513 21.1396 8.59147 21.2756 8.69176 21.3759C8.79206 21.4762 8.92808 21.5325 9.06992 21.5325H14.6852C14.7562 21.5325 14.8242 21.5607 14.8743 21.6109C14.9245 21.661 14.9526 21.729 14.9526 21.7999C14.9526 21.8709 14.9245 21.9389 14.8743 21.989C14.8242 22.0392 14.7562 22.0673 14.6852 22.0673H9.06992C8.92808 22.0673 8.79206 22.1237 8.69176 22.224C8.59147 22.3243 8.53513 22.4603 8.53513 22.6021C8.53513 22.744 8.59147 22.88 8.69176 22.9803C8.79206 23.0806 8.92808 23.1369 9.06992 23.1369H13.6157C13.6866 23.1369 13.7546 23.1651 13.8047 23.2152C13.8549 23.2654 13.883 23.3334 13.883 23.4043C13.883 23.4752 13.8549 23.5432 13.8047 23.5934C13.7546 23.6435 13.6866 23.6717 13.6157 23.6717H9.06992C8.92808 23.6717 8.79206 23.7281 8.69176 23.8283C8.59147 23.9286 8.53513 24.0647 8.53513 24.2065C8.53513 24.3483 8.59147 24.4844 8.69176 24.5847C8.79206 24.6849 8.92808 24.7413 9.06992 24.7413H11.7105C11.7187 24.7417 11.7264 24.7451 11.7323 24.7509C11.7381 24.7567 11.7417 24.7644 11.7422 24.7726C11.7427 24.7808 11.7401 24.7889 11.735 24.7954C11.7299 24.8019 11.7226 24.8062 11.7145 24.8076L8.04218 25.2667L4.40386 24.2271C4.35603 24.2134 4.30653 24.2065 4.25679 24.2065H0.513245V25.2761H4.18192L6.93075 26.0615V31.1588H6.93202C6.93151 31.2291 6.94496 31.2987 6.97158 31.3638C6.9982 31.4288 7.03745 31.4879 7.08708 31.5376C7.13671 31.5874 7.19571 31.6268 7.26068 31.6535C7.32564 31.6803 7.39528 31.6939 7.46554 31.6936H14.5248C14.4348 31.9319 14.4011 32.1877 14.4263 32.4412C14.4515 32.6946 14.535 32.9388 14.6702 33.1546C14.8055 33.3705 14.9887 33.5522 15.2058 33.6854C15.4228 33.8187 15.6677 33.9 15.9214 33.923L25.22 34.7686C25.5584 34.7995 25.8973 34.8149 26.2367 34.8148C26.9105 34.8148 27.5829 34.7542 28.2458 34.6337L32.6964 33.8245L32.5051 32.7721L28.0545 33.5809ZM13.3483 11.3715C13.3484 11.2297 13.4048 11.0938 13.5051 10.9935C13.6053 10.8933 13.7413 10.8369 13.883 10.8367H14.9526C15.5198 10.8373 16.0635 11.0629 16.4645 11.464C16.8656 11.865 17.0912 12.4087 17.0918 12.9759C17.0916 13.1177 17.0352 13.2536 16.935 13.3538C16.8347 13.4541 16.6988 13.5105 16.557 13.5107H15.4874C14.9203 13.51 14.3765 13.2844 13.9755 12.8834C13.5745 12.4824 13.3489 11.9386 13.3483 11.3715ZM15.22 9.23232H16.557C16.6628 9.23233 16.7662 9.20096 16.8541 9.1422C16.9421 9.08344 17.0106 8.99991 17.0511 8.90219C17.0916 8.80447 17.1022 8.69694 17.0815 8.59319C17.0609 8.48945 17.01 8.39416 16.9352 8.31937L16.133 7.51718C16.0773 7.4615 16.0331 7.39539 16.003 7.32264C15.9729 7.24988 15.9573 7.1719 15.9573 7.09316C15.9573 7.01441 15.9729 6.93643 16.003 6.86368C16.0331 6.79092 16.0773 6.72482 16.133 6.66913C16.1887 6.61345 16.2548 6.56928 16.3275 6.53914C16.4003 6.50901 16.4783 6.4935 16.557 6.4935C16.6358 6.4935 16.7137 6.50901 16.7865 6.53914C16.8592 6.56928 16.9253 6.61345 16.981 6.66913L17.7832 7.47132C17.858 7.54612 17.9533 7.59705 18.057 7.61769C18.1608 7.63833 18.2683 7.62774 18.366 7.58726C18.4638 7.54678 18.5473 7.47823 18.6061 7.39028C18.6648 7.30233 18.6962 7.19893 18.6962 7.09316V6.02357C18.6962 5.7399 18.8089 5.46785 19.0094 5.26726C19.21 5.06668 19.4821 4.95399 19.7658 4.95399C20.0494 4.95399 20.3215 5.06668 20.5221 5.26726C20.7227 5.46785 20.8353 5.7399 20.8353 6.02357V7.09316C20.8353 7.19893 20.8667 7.30233 20.9255 7.39028C20.9842 7.47823 21.0678 7.54678 21.1655 7.58726C21.2632 7.62774 21.3707 7.63833 21.4745 7.61769C21.5782 7.59705 21.6735 7.54612 21.7483 7.47132L22.5505 6.66913C22.6062 6.61345 22.6723 6.56928 22.745 6.53914C22.8178 6.50901 22.8958 6.4935 22.9745 6.4935C23.0533 6.4935 23.1312 6.50901 23.204 6.53914C23.2767 6.56928 23.3428 6.61345 23.3985 6.66913C23.4542 6.72482 23.4984 6.79092 23.5285 6.86368C23.5587 6.93643 23.5742 7.01441 23.5742 7.09316C23.5742 7.1719 23.5587 7.24988 23.5285 7.32264C23.4984 7.39539 23.4542 7.4615 23.3985 7.51718L22.5963 8.31937C22.5215 8.39416 22.4706 8.48945 22.45 8.59319C22.4293 8.69694 22.4399 8.80447 22.4804 8.90219C22.5209 8.99991 22.5894 9.08344 22.6774 9.1422C22.7653 9.20096 22.8687 9.23233 22.9745 9.23232H24.3115C24.5242 9.23232 24.7283 9.31684 24.8787 9.46728C25.0292 9.61772 25.1137 9.82176 25.1137 10.0345C25.1137 10.2473 25.0292 10.4513 24.8787 10.6017C24.7283 10.7522 24.5242 10.8367 24.3115 10.8367H22.9745C22.8327 10.8367 22.6966 10.893 22.5964 10.9933C22.4961 11.0936 22.4397 11.2297 22.4397 11.3715V11.6563C21.8157 11.0959 20.9967 10.8027 20.1588 10.8399C19.3208 10.877 18.531 11.2414 17.959 11.8549C17.7298 11.2423 17.3192 10.7143 16.782 10.3412C16.2448 9.96819 15.6066 9.7679 14.9526 9.76712H14.4646C14.52 9.61092 14.6223 9.47566 14.7575 9.37992C14.8928 9.28417 15.0543 9.23261 15.22 9.23232ZM22.372 13.5107H18.2291C18.3475 13.0513 18.6153 12.6443 18.9903 12.3537C19.3652 12.0632 19.8262 11.9055 20.3006 11.9055C20.7749 11.9055 21.2359 12.0632 21.6108 12.3537C21.9858 12.6443 22.2536 13.0513 22.372 13.5107ZM9.06992 6.02357C9.06992 5.45623 9.29529 4.91212 9.69647 4.51095C10.0976 4.10978 10.6417 3.8844 11.2091 3.8844C11.7764 3.8844 12.3205 4.10978 12.7217 4.51095C13.1229 4.91212 13.3483 5.45623 13.3483 6.02357V9.8591C13.0357 9.97001 12.7651 10.1749 12.5736 10.4457C12.3821 10.7165 12.2791 11.0398 12.2787 11.3715C12.2781 12.1613 12.5701 12.9234 13.0983 13.5107H9.06992V6.02357ZM10.1395 14.5802H11.2091V18.8586H10.1395V14.5802ZM8.84845 15.6498C8.56074 15.65 8.27474 15.694 8.00033 15.7805V14.5802H9.06992V15.6702C8.99682 15.6571 8.92272 15.6503 8.84845 15.6498ZM9.06992 18.5453V18.8586H8.7566L9.06992 18.5453ZM10.1395 26.0824L11.2091 25.9487V29.8676L10.1395 28.798V26.0824ZM8.06665 26.3415L9.06992 26.2161V28.7981L8.00033 29.8677V26.3457C8.0225 26.3457 8.04465 26.3443 8.06665 26.3415ZM8.7566 30.624L9.60471 29.7759L10.4528 30.624H8.7566ZM12.2787 25.7184C12.4415 25.6204 12.5763 25.482 12.67 25.3167C12.7637 25.1514 12.8131 24.9646 12.8135 24.7746C12.8135 24.7634 12.8135 24.7523 12.8129 24.7412H13.6157C13.8157 24.7411 14.0131 24.6961 14.1935 24.6096C14.3738 24.5231 14.5325 24.3972 14.6578 24.2413C14.7831 24.0854 14.8718 23.9033 14.9174 23.7085C14.963 23.5138 14.9643 23.3113 14.9213 23.1159C15.2502 23.057 15.545 22.877 15.7478 22.6115C15.9506 22.346 16.0467 22.0142 16.0171 21.6814C15.9875 21.3486 15.8343 21.039 15.5878 20.8135C15.3413 20.588 15.0193 20.4629 14.6852 20.463H14.3911C14.4306 20.2687 14.4264 20.0681 14.3789 19.8757C14.3313 19.6832 14.2416 19.5038 14.1162 19.3502C13.9909 19.1967 13.8329 19.0729 13.6539 18.9879C13.4748 18.9029 13.2791 18.8587 13.0809 18.8586H12.2787V14.5802H23.5093V25.8125C23.0784 25.8298 22.6708 26.013 22.3718 26.3238C22.0728 26.6345 21.9055 27.0489 21.9049 27.4802V27.5719C21.9057 27.933 22.0229 28.2843 22.2392 28.5735L23.4636 30.2053C23.4933 30.245 23.5094 30.2932 23.5095 30.3428V30.3553C23.5096 30.4264 23.4815 30.4947 23.4313 30.545C23.3811 30.5954 23.313 30.6238 23.2419 30.624H12.2787V25.7184Z" fill="black"/>
<path d="M45.2378 14.8148V4.15076H48.248C49.1758 4.15076 49.9961 4.35583 50.709 4.76599C51.4219 5.17615 51.9712 5.75964 52.3569 6.51648C52.7476 7.27332 52.9453 8.14246 52.9502 9.1239V9.80505C52.9502 10.8109 52.7549 11.6923 52.3643 12.4491C51.9785 13.2059 51.4243 13.787 50.7017 14.1923C49.9839 14.5975 49.1465 14.8051 48.1895 14.8148H45.2378ZM46.644 5.30798V13.6649H48.1235C49.2075 13.6649 50.0498 13.328 50.6504 12.6542C51.2559 11.9803 51.5586 11.0209 51.5586 9.77576V9.1532C51.5586 7.94226 51.2729 7.00232 50.7017 6.33337C50.1353 5.65955 49.3296 5.31775 48.2847 5.30798H46.644ZM58.1577 14.9613C57.0835 14.9613 56.2095 14.6097 55.5356 13.9066C54.8618 13.1986 54.5249 12.2538 54.5249 11.0721V10.8231C54.5249 10.037 54.6738 9.3363 54.9717 8.72107C55.2744 8.10095 55.6943 7.61755 56.2314 7.27087C56.7734 6.91931 57.3594 6.74353 57.9893 6.74353C59.0195 6.74353 59.8203 7.08289 60.3916 7.7616C60.9629 8.44031 61.2485 9.41199 61.2485 10.6766V11.2406H55.8799C55.8994 12.0219 56.1265 12.6542 56.561 13.1376C57.0005 13.6161 57.5571 13.8553 58.231 13.8553C58.7095 13.8553 59.1147 13.7577 59.4468 13.5624C59.7788 13.3671 60.0693 13.1083 60.3184 12.786L61.146 13.4305C60.4819 14.451 59.4858 14.9613 58.1577 14.9613ZM57.9893 7.85681C57.4424 7.85681 56.9834 8.05701 56.6123 8.4574C56.2412 8.85291 56.0117 9.40955 55.9238 10.1273H59.8936V10.0248C59.8545 9.3363 59.6689 8.80408 59.3369 8.4281C59.0049 8.04724 58.5557 7.85681 57.9893 7.85681ZM64.2954 14.8148H62.9404V3.56482H64.2954V14.8148ZM67.9429 14.8148H66.5879V6.89001H67.9429V14.8148ZM66.478 4.78796C66.478 4.56824 66.5439 4.38269 66.6758 4.23132C66.8125 4.07996 67.0127 4.00427 67.2764 4.00427C67.54 4.00427 67.7402 4.07996 67.877 4.23132C68.0137 4.38269 68.082 4.56824 68.082 4.78796C68.082 5.00769 68.0137 5.1908 67.877 5.33728C67.7402 5.48376 67.54 5.55701 67.2764 5.55701C67.0127 5.55701 66.8125 5.48376 66.6758 5.33728C66.5439 5.1908 66.478 5.00769 66.478 4.78796ZM72.7329 12.9764L74.6958 6.89001H76.0801L73.2383 14.8148H72.2056L69.3345 6.89001H70.7188L72.7329 12.9764ZM80.5698 14.9613C79.4956 14.9613 78.6216 14.6097 77.9478 13.9066C77.2739 13.1986 76.937 12.2538 76.937 11.0721V10.8231C76.937 10.037 77.0859 9.3363 77.3838 8.72107C77.6865 8.10095 78.1064 7.61755 78.6436 7.27087C79.1855 6.91931 79.7715 6.74353 80.4014 6.74353C81.4316 6.74353 82.2324 7.08289 82.8037 7.7616C83.375 8.44031 83.6606 9.41199 83.6606 10.6766V11.2406H78.292C78.3115 12.0219 78.5386 12.6542 78.9731 13.1376C79.4126 13.6161 79.9692 13.8553 80.6431 13.8553C81.1216 13.8553 81.5269 13.7577 81.8589 13.5624C82.1909 13.3671 82.4814 13.1083 82.7305 12.786L83.5581 13.4305C82.894 14.451 81.8979 14.9613 80.5698 14.9613ZM80.4014 7.85681C79.8545 7.85681 79.3955 8.05701 79.0244 8.4574C78.6533 8.85291 78.4238 9.40955 78.3359 10.1273H82.3057V10.0248C82.2666 9.3363 82.0811 8.80408 81.749 8.4281C81.417 8.04724 80.9678 7.85681 80.4014 7.85681ZM89.0659 8.10583C88.8608 8.07166 88.6387 8.05457 88.3994 8.05457C87.5107 8.05457 86.9077 8.43298 86.5903 9.18982V14.8148H85.2354V6.89001H86.5537L86.5757 7.80554C87.02 7.09753 87.6499 6.74353 88.4653 6.74353C88.729 6.74353 88.9292 6.77771 89.0659 6.84607V8.10583ZM93.043 12.83L94.8887 6.89001H96.3389L93.1528 16.038C92.6597 17.3563 91.876 18.0155 90.8018 18.0155L90.5454 17.9935L90.04 17.8983V16.7997L90.4062 16.829C90.8652 16.829 91.2217 16.7362 91.4756 16.5507C91.7344 16.3651 91.9468 16.0258 92.1128 15.5326L92.4131 14.7269L89.5859 6.89001H91.0654L93.043 12.83ZM51.1191 28.1053H46.644V32.8148H45.2378V22.1508H51.8442V23.308H46.644V26.9554H51.1191V28.1053ZM52.7964 28.7792C52.7964 28.0028 52.9478 27.3046 53.2505 26.6844C53.5581 26.0643 53.9829 25.5858 54.5249 25.2489C55.0718 24.912 55.6943 24.7435 56.3926 24.7435C57.4717 24.7435 58.3433 25.1171 59.0073 25.8641C59.6763 26.6112 60.0107 27.6049 60.0107 28.8451V28.9403C60.0107 29.7118 59.8618 30.4052 59.564 31.0204C59.271 31.6307 58.8486 32.1068 58.2969 32.4486C57.75 32.7904 57.1201 32.9613 56.4072 32.9613C55.333 32.9613 54.4614 32.5878 53.7925 31.8407C53.1284 31.0936 52.7964 30.1049 52.7964 28.8744V28.7792ZM54.1587 28.9403C54.1587 29.8192 54.3613 30.5248 54.7666 31.057C55.1768 31.5892 55.7236 31.8553 56.4072 31.8553C57.0957 31.8553 57.6426 31.5868 58.0479 31.0497C58.4531 30.5077 58.6558 29.7509 58.6558 28.7792C58.6558 27.91 58.4482 27.2069 58.0332 26.6698C57.623 26.1278 57.0762 25.8568 56.3926 25.8568C55.7236 25.8568 55.1841 26.1229 54.7739 26.6552C54.3638 27.1874 54.1587 27.9491 54.1587 28.9403ZM61.3511 28.7792C61.3511 28.0028 61.5024 27.3046 61.8052 26.6844C62.1128 26.0643 62.5376 25.5858 63.0796 25.2489C63.6265 24.912 64.249 24.7435 64.9473 24.7435C66.0264 24.7435 66.8979 25.1171 67.562 25.8641C68.231 26.6112 68.5654 27.6049 68.5654 28.8451V28.9403C68.5654 29.7118 68.4165 30.4052 68.1187 31.0204C67.8257 31.6307 67.4033 32.1068 66.8516 32.4486C66.3047 32.7904 65.6748 32.9613 64.9619 32.9613C63.8877 32.9613 63.0161 32.5878 62.3472 31.8407C61.6831 31.0936 61.3511 30.1049 61.3511 28.8744V28.7792ZM62.7134 28.9403C62.7134 29.8192 62.916 30.5248 63.3213 31.057C63.7314 31.5892 64.2783 31.8553 64.9619 31.8553C65.6504 31.8553 66.1973 31.5868 66.6025 31.0497C67.0078 30.5077 67.2104 29.7509 67.2104 28.7792C67.2104 27.91 67.0029 27.2069 66.5879 26.6698C66.1777 26.1278 65.6309 25.8568 64.9473 25.8568C64.2783 25.8568 63.7388 26.1229 63.3286 26.6552C62.9185 27.1874 62.7134 27.9491 62.7134 28.9403ZM69.9351 28.7865C69.9351 27.5707 70.2231 26.5941 70.7993 25.8568C71.3755 25.1146 72.1299 24.7435 73.0625 24.7435C73.9902 24.7435 74.7251 25.0609 75.2671 25.6957V21.5648H76.6221V32.8148H75.377L75.311 31.9652C74.769 32.6293 74.0146 32.9613 73.0479 32.9613C72.1299 32.9613 71.3804 32.5853 70.7993 31.8334C70.2231 31.0814 69.9351 30.1 69.9351 28.889V28.7865ZM71.29 28.9403C71.29 29.8387 71.4756 30.5419 71.8467 31.0497C72.2178 31.5575 72.7305 31.8114 73.3848 31.8114C74.2441 31.8114 74.8716 31.4257 75.2671 30.6542V27.014C74.8618 26.267 74.2393 25.8934 73.3994 25.8934C72.7354 25.8934 72.2178 26.1498 71.8467 26.6625C71.4756 27.1752 71.29 27.9344 71.29 28.9403Z" fill="black"/>
</svg>
